<?xml version="1.0" encoding="utf-8"?>
<svg xmlns="http://www.w3.org/2000/svg" viewBox="-0.412 0.794 501.187 501.95" xmlns:bx="https://boxy-svg.com" width="501.187px" height="501.95px"><defs><linearGradient id="color-0"><stop style="stop-color: rgb(39, 58, 102);" offset="0"/><stop style="stop-color: rgb(8, 17, 35);" offset="1"/></linearGradient><linearGradient id="color-0-0" href="#color-0" gradientUnits="userSpaceOnUse" x1="249.386" y1="-0.602" x2="249.386" y2="500.471" gradientTransform="matrix(0.699766, -0.711372, 1.00003, 0.983714, -175.220732, 180.486511)"/><filter id="inner-shadow-filter-0" color-interpolation-filters="sRGB" x="-50%" y="-50%" width="200%" height="200%"><feOffset dx="0" dy="0"/><feGaussianBlur stdDeviation="8"/><feComposite operator="out" in="SourceGraphic"/><feComponentTransfer result="choke"><feFuncA type="linear" slope="0.62"/></feComponentTransfer><feFlood flood-color="#38509cb3" result="color"/><feComposite operator="in" in="color" in2="choke" result="shadow"/><feComposite operator="over" in="shadow" in2="SourceGraphic"/></filter></defs><rect x="0.626" y="1.779" width="499.341" height="500" style="fill: url(&quot;#color-0-0&quot;); filter: url(&quot;#inner-shadow-filter-0&quot;); stroke: rgb(16, 23, 45); stroke-miterlimit: 2.55; stroke-width: 1.996px;" rx="92.425" ry="92.425"/><path d="M 230.951 356.62 L 335.726 229.892 C 340.716 221.909 335.726 214.924 325.748 214.924 L 275.855 214.924 C 265.876 214.924 264.261 211.99 265.876 201.952 L 273.859 142.08 C 275.855 132.101 269.086 126.654 260.887 137.091 L 161.101 257.832 C 156.112 265.815 161.101 270.804 171.08 270.804 L 220.973 270.804 C 230.951 270.804 233.945 273.797 230.951 283.776 L 215.983 352.628 C 213.988 362.607 218.977 366.598 225.962 361.609 L 230.951 356.62 Z" style="fill: rgb(71, 54, 211); filter: drop-shadow(rgba(0, 0, 0, 0.3) 10px 10px 7px); stroke-opacity: 0.58; stroke: rgb(130, 104, 240); stroke-width: 0.998px;"/><path d="M 177.988 370.937 C 179.821 371.935 183.489 373.93 186.834 375.538 C 190.18 377.147 193.204 378.369 196.324 379.623 C 199.445 380.878 202.661 382.165 206.361 383.355 C 210.06 384.545 214.242 385.639 218.231 386.443 C 222.22 387.248 226.016 387.762 229.748 388.213 C 233.479 388.663 237.147 389.049 241.296 389.178 C 245.446 389.307 250.078 389.178 254.904 388.888 C 259.729 388.599 264.747 388.148 269.026 387.569 C 273.304 386.99 276.843 386.282 280.799 385.285 C 284.756 384.288 289.131 383.001 293.763 381.522 C 298.396 380.042 303.286 378.369 307.886 376.374 C 312.486 374.38 316.797 372.064 320.915 369.683 C 325.032 367.303 328.957 364.858 333.203 361.673 C 337.449 358.489 342.017 354.564 345.877 350.99 C 349.738 347.415 352.89 344.191 356.268 340.327 C 359.646 336.464 363.249 331.96 366.369 327.488 C 369.489 323.017 372.127 318.577 374.25 314.653 C 376.373 310.728 377.982 307.318 379.397 304.023 C 380.813 300.728 382.035 297.546 383.129 294.219 C 384.223 290.891 385.188 287.417 386.217 283.556 C 387.247 279.696 388.341 275.45 389.145 271.364 C 389.949 267.278 390.463 263.354 390.753 259.654 C 391.042 255.955 391.107 252.481 391.171 248.91 C 391.236 245.339 391.3 241.672 391.171 238.198 C 391.042 234.724 390.721 231.443 390.399 228.476 C 390.077 225.509 389.756 222.857 389.627 220.084 C 389.498 217.31 389.563 214.415 390.109 211.777 C 390.656 209.139 391.686 206.759 392.844 204.829 C 394.002 202.899 395.289 201.419 396.865 199.971 C 398.442 198.523 400.307 197.108 402.43 195.885 C 404.553 194.663 406.934 193.633 409.025 193.086 C 411.116 192.539 412.917 192.475 414.526 192.572 C 416.134 192.669 417.55 192.926 419.126 193.505 C 420.702 194.084 422.439 194.985 424.209 196.014 C 425.978 197.043 427.78 198.201 429.227 199.456 C 430.675 200.71 431.768 202.061 432.701 203.284 C 433.634 204.506 434.406 205.6 435.146 207.145 C 435.886 208.689 436.594 210.683 437.205 212.452 C 437.816 214.222 438.331 215.766 438.685 217.406 C 439.039 219.047 439.232 220.784 439.489 222.972 C 439.747 225.159 440.068 227.797 440.261 230.885 C 440.454 233.973 440.518 237.512 440.55 241.158 C 440.582 244.804 440.582 248.557 440.486 251.945 C 440.39 255.333 440.197 258.357 439.907 261.864 C 439.618 265.37 439.232 269.359 438.653 273.927 C 438.074 278.495 437.301 283.642 436.079 289.497 C 434.856 295.352 433.184 301.914 431.447 307.64 C 429.709 313.366 427.908 318.256 425.779 322.979 C 423.651 327.702 421.195 332.259 418.51 337.151 C 415.825 342.043 412.91 347.269 409.241 352.923 C 405.573 358.576 401.151 364.657 396.804 370.003 C 392.457 375.349 388.186 379.962 383.864 384.202 C 379.542 388.443 375.169 392.313 370.998 395.73 C 366.827 399.148 362.858 402.113 357.053 406.058 C 351.249 410.002 343.611 414.927 334.766 419.475 C 325.921 424.023 315.87 428.194 305.292 431.486 C 294.714 434.777 283.608 437.189 273.005 438.622 C 262.401 440.054 252.3 440.506 243.707 440.381 C 235.113 440.255 228.028 439.551 220.364 438.244 C 212.7 436.938 204.458 435.028 197.172 432.968 C 189.885 430.908 183.553 428.697 177.322 425.983 C 171.091 423.269 164.96 420.053 160.06 417.339 C 155.161 414.626 151.492 412.415 148.703 410.706 C 145.914 408.998 144.004 407.792 142.622 407.038 C 141.24 406.284 140.386 405.982 139.531 405.932 C 138.677 405.881 137.823 406.082 136.944 406.509 C 136.064 406.936 135.16 407.59 132.823 409.901 C 130.486 412.213 126.717 416.183 124.434 418.228 C 122.15 420.273 121.352 420.393 120.352 420.453 C 119.352 420.513 118.149 420.513 116.97 420.212 C 115.79 419.912 114.634 419.31 113.593 418.547 C 112.552 417.784 111.627 416.859 110.749 415.125 C 109.87 413.391 109.037 410.847 107.233 404.633 C 105.43 398.42 102.655 388.538 99.688 378.062 C 96.722 367.586 93.564 356.518 91.873 350.113 C 90.182 343.708 89.958 341.968 90.183 340.396 C 90.407 338.824 91.081 337.421 92.209 336.316 C 93.338 335.211 94.92 334.406 96.52 333.872 C 98.12 333.339 99.737 333.079 101.837 333.116 C 103.937 333.154 106.519 333.491 110.112 334.024 C 113.705 334.557 118.308 335.287 124.399 336.242 C 130.49 337.196 138.069 338.375 145.058 339.498 C 152.047 340.621 158.447 341.687 163.416 342.445 C 168.384 343.203 171.921 343.652 174.307 344.101 C 176.692 344.551 177.927 345 179.05 345.757 C 180.173 346.515 181.183 347.582 181.632 348.817 C 182.082 350.052 181.969 351.455 181.52 352.943 C 181.071 354.431 180.285 356.003 179.274 357.518 C 178.264 359.034 177.029 360.494 176.046 361.672 C 175.064 362.851 174.334 363.749 174.082 364.704 C 173.829 365.658 174.053 366.668 174.478 367.551 C 174.903 368.433 175.529 369.186 175.841 369.563 C 176.154 369.94 176.154 369.94 176.154 369.94 C 176.154 369.94 176.154 369.94 177.988 370.937" style="fill: rgb(59, 42, 193); filter: drop-shadow(rgba(0, 0, 0, 0.3) 10px 10px 7px); stroke: rgb(130, 104, 240); stroke-opacity: 0.52; stroke-width: 0.998px;"/><path d="M 149.05 230.239 C 150.883 231.237 154.551 233.231 157.897 234.84 C 161.242 236.449 164.266 237.671 167.386 238.925 C 170.507 240.18 173.723 241.466 177.423 242.657 C 181.122 243.847 185.304 244.941 189.293 245.745 C 193.282 246.55 197.078 247.064 200.81 247.514 C 204.541 247.965 208.209 248.351 212.359 248.48 C 216.508 248.608 221.14 248.48 225.966 248.19 C 230.791 247.901 235.81 247.45 240.088 246.871 C 244.367 246.292 247.905 245.584 251.862 244.587 C 255.818 243.59 260.193 242.303 264.826 240.824 C 269.458 239.344 274.348 237.671 278.948 235.676 C 283.548 233.682 287.859 231.365 291.977 228.985 C 296.094 226.605 300.019 224.16 304.265 220.975 C 308.512 217.791 313.079 213.866 316.94 210.292 C 320.8 206.717 323.952 203.493 327.33 199.629 C 330.708 195.766 334.311 191.262 337.431 186.79 C 340.551 182.319 343.189 177.879 345.312 173.955 C 347.435 170.03 349.044 166.62 350.459 163.325 C 351.875 160.03 353.097 156.848 354.191 153.521 C 355.285 150.193 356.25 146.719 357.28 142.858 C 358.309 138.998 359.403 134.751 360.207 130.666 C 361.011 126.58 361.525 122.656 361.815 118.956 C 362.105 115.257 362.169 111.783 362.233 108.212 C 362.298 104.641 362.362 100.974 362.233 97.5 C 362.105 94.026 361.783 90.745 361.461 87.778 C 361.14 84.811 360.818 82.159 360.689 79.386 C 360.56 76.612 360.625 73.716 361.172 71.079 C 361.718 68.441 362.748 66.061 363.906 64.131 C 365.064 62.2 366.351 60.721 367.927 59.273 C 369.504 57.825 371.369 56.41 373.492 55.187 C 375.616 53.965 377.996 52.935 380.087 52.388 C 382.178 51.841 383.98 51.777 385.588 51.874 C 387.196 51.97 388.612 52.228 390.188 52.807 C 391.764 53.386 393.501 54.287 395.271 55.316 C 397.04 56.345 398.842 57.503 400.289 58.758 C 401.737 60.012 402.83 61.363 403.763 62.586 C 404.696 63.808 405.468 64.902 406.208 66.447 C 406.948 67.991 407.656 69.985 408.267 71.754 C 408.878 73.524 409.393 75.068 409.747 76.708 C 410.101 78.349 410.294 80.086 410.551 82.274 C 410.809 84.461 411.13 87.099 411.323 90.187 C 411.516 93.275 411.58 96.814 411.612 100.46 C 411.645 104.106 411.645 107.859 411.548 111.247 C 411.452 114.635 411.259 117.659 410.969 121.166 C 410.68 124.672 410.294 128.661 409.715 133.229 C 409.136 137.797 408.364 142.944 407.141 148.799 C 405.919 154.654 404.246 161.216 402.509 166.942 C 400.772 172.668 398.97 177.558 396.841 182.281 C 394.713 187.004 392.257 191.561 389.572 196.453 C 386.887 201.345 383.972 206.571 380.303 212.225 C 376.635 217.878 372.213 223.959 367.866 229.305 C 363.519 234.651 359.248 239.264 354.926 243.504 C 350.604 247.745 346.232 251.615 342.061 255.032 C 337.889 258.45 333.92 261.415 328.115 265.36 C 322.311 269.304 314.673 274.229 305.828 278.777 C 296.983 283.325 286.932 287.496 276.354 290.788 C 265.776 294.079 254.67 296.491 244.067 297.924 C 233.463 299.356 223.362 299.808 214.769 299.683 C 206.175 299.557 199.09 298.853 191.426 297.546 C 183.762 296.24 175.521 294.33 168.234 292.27 C 160.947 290.21 154.615 287.999 148.384 285.285 C 142.153 282.571 136.022 279.355 131.122 276.641 C 126.223 273.927 122.554 271.717 119.765 270.008 C 116.976 268.3 115.066 267.093 113.684 266.34 C 112.302 265.586 111.448 265.284 110.594 265.234 C 109.739 265.183 108.885 265.384 108.006 265.811 C 107.126 266.238 106.222 266.892 103.885 269.203 C 101.548 271.515 97.779 275.485 95.496 277.53 C 93.212 279.575 92.414 279.695 91.414 279.755 C 90.414 279.814 89.211 279.814 88.032 279.514 C 86.853 279.213 85.696 278.612 84.655 277.849 C 83.614 277.086 82.689 276.161 81.811 274.427 C 80.932 272.692 80.099 270.149 78.296 263.935 C 76.492 257.722 73.717 247.84 70.75 237.364 C 67.784 226.888 64.627 215.819 62.936 209.415 C 61.244 203.01 61.02 201.27 61.245 199.698 C 61.469 198.126 62.143 196.722 63.276 195.644 C 64.408 194.565 66 193.812 67.6 193.279 C 69.199 192.746 70.808 192.433 72.903 192.444 C 74.999 192.456 77.581 192.793 81.174 193.326 C 84.767 193.859 89.37 194.589 95.461 195.544 C 101.552 196.498 109.131 197.677 116.12 198.8 C 123.109 199.923 129.509 200.989 134.478 201.747 C 139.446 202.505 142.983 202.954 145.369 203.403 C 147.755 203.853 148.99 204.302 150.112 205.059 C 151.235 205.817 152.246 206.884 152.695 208.119 C 153.144 209.354 153.031 210.757 152.582 212.245 C 152.133 213.733 151.347 215.305 150.336 216.82 C 149.326 218.336 148.091 219.796 147.108 220.974 C 146.126 222.153 145.396 223.051 145.144 224.006 C 144.891 224.96 145.116 225.97 145.54 226.852 C 145.965 227.735 146.591 228.488 146.903 228.865 C 147.216 229.242 147.216 229.242 147.216 229.242 C 147.216 229.242 147.216 229.242 149.05 230.239" style="fill: rgb(76, 55, 216); filter: drop-shadow(rgba(0, 0, 0, 0.3) 10px 10px 7px); stroke: rgb(130, 104, 240); stroke-opacity: 0.68; stroke-width: 0.998px;" transform="matrix(-1, 0, 0, -1, 472.804, 351.54)" id="object-0"/></svg>