<svg xmlns="http://www.w3.org/2000/svg" viewBox="0 0 840 88" width="840" height="88">
  <defs>
    <style>@import url('https://fonts.googleapis.com/css2?family=Inter:wght@400;500;600;700;800&amp;display=swap');</style>
    <linearGradient id="bg" x1="0" y1="0" x2="840" y2="88" gradientUnits="userSpaceOnUse">
      <stop offset="0%" stop-color="#273a66"/>
      <stop offset="100%" stop-color="#081123"/>
    </linearGradient>
  </defs>
  <rect width="840" height="88" rx="12" fill="url(#bg)"/>
  <rect x="0.5" y="0.5" width="839" height="87" rx="12" fill="none" stroke="rgba(255,255,255,0.07)" stroke-width="1"/>

  <!-- Left: Big number + label -->
  <text x="52" y="44" text-anchor="middle" font-family="Inter, -apple-system, sans-serif" font-weight="800" font-size="30" fill="#fafafa">6</text>
  <text x="52" y="62" text-anchor="middle" font-family="Inter, -apple-system, sans-serif" font-weight="500" font-size="10" fill="#a3a3a3">Platforms</text>

  <!-- Divider -->
  <line x1="108" y1="16" x2="108" y2="72" stroke="rgba(255,255,255,0.06)" stroke-width="1"/>

  <!-- ═══ Platform cards (6 cards, 108×56 each) ═══ -->

  <!-- Velocity — blue (#60a5fa) — Proxy -->
  <g transform="translate(122, 16)">
    <rect x="0" y="0" width="108" height="56" rx="10" fill="rgba(96,165,250,0.05)" stroke="rgba(96,165,250,0.12)" stroke-width="0.75"/>
    <circle cx="24" cy="28" r="13" fill="rgba(96,165,250,0.1)"/>
    <g transform="translate(16, 20) scale(0.667)" stroke="#60a5fa" stroke-width="2" fill="none" stroke-linecap="round" stroke-linejoin="round">
      <path d="M14.536 21.686a.5.5 0 0 0 .937-.024l6.5-19a.496.496 0 0 0-.635-.635l-19 6.5a.5.5 0 0 0-.024.937l7.93 3.18a2 2 0 0 1 1.112 1.11z" />
      <path d="m21.854 2.147-10.94 10.939" />
    </g>
    <text x="44" y="25" font-family="Inter, -apple-system, sans-serif" font-weight="700" font-size="11" fill="#60a5fa">Velocity</text>
    <text x="44" y="40" font-family="Inter, -apple-system, sans-serif" font-weight="400" font-size="9" fill="#737373">Proxy</text>
  </g>

  <!-- Paper — green (#6ee7b7) — Backend -->
  <g transform="translate(238, 16)">
    <rect x="0" y="0" width="108" height="56" rx="10" fill="rgba(110,231,183,0.05)" stroke="rgba(110,231,183,0.12)" stroke-width="0.75"/>
    <circle cx="24" cy="28" r="13" fill="rgba(110,231,183,0.1)"/>
    <g transform="translate(16, 20) scale(0.667)" stroke="#6ee7b7" stroke-width="2" fill="none" stroke-linecap="round" stroke-linejoin="round">
      <path d="M15 2H6a2 2 0 0 0-2 2v16a2 2 0 0 0 2 2h12a2 2 0 0 0 2-2V7Z" />
      <path d="M14 2v4a2 2 0 0 0 2 2h4" />
      <path d="M10 9H8" />
      <path d="M16 13H8" />
      <path d="M16 17H8" />
    </g>
    <text x="44" y="25" font-family="Inter, -apple-system, sans-serif" font-weight="700" font-size="11" fill="#6ee7b7">Paper</text>
    <text x="44" y="40" font-family="Inter, -apple-system, sans-serif" font-weight="400" font-size="9" fill="#737373">Backend</text>
  </g>

  <!-- Folia — amber (#fbbf24) — Backend -->
  <g transform="translate(354, 16)">
    <rect x="0" y="0" width="108" height="56" rx="10" fill="rgba(251,191,36,0.05)" stroke="rgba(251,191,36,0.12)" stroke-width="0.75"/>
    <circle cx="24" cy="28" r="13" fill="rgba(251,191,36,0.1)"/>
    <g transform="translate(16, 20) scale(0.667)" stroke="#fbbf24" stroke-width="2" fill="none" stroke-linecap="round" stroke-linejoin="round">
      <path d="M11 20A7 7 0 0 1 9.8 6.1C15.5 5 17 4.48 19 2c1 2 2 4.18 2 8 0 5.5-4.78 10-10 10Z" />
      <path d="M2 21c0-3 1.85-5.36 5.08-6C9.5 14.52 12 13 13 12" />
    </g>
    <text x="44" y="25" font-family="Inter, -apple-system, sans-serif" font-weight="700" font-size="11" fill="#fbbf24">Folia</text>
    <text x="44" y="40" font-family="Inter, -apple-system, sans-serif" font-weight="400" font-size="9" fill="#737373">Backend</text>
  </g>

  <!-- Purpur — rose (#fb7185) — Backend -->
  <g transform="translate(470, 16)">
    <rect x="0" y="0" width="108" height="56" rx="10" fill="rgba(251,113,133,0.05)" stroke="rgba(251,113,133,0.12)" stroke-width="0.75"/>
    <circle cx="24" cy="28" r="13" fill="rgba(251,113,133,0.1)"/>
    <g transform="translate(16, 20) scale(0.667)" stroke="#fb7185" stroke-width="2" fill="none" stroke-linecap="round" stroke-linejoin="round">
      <path d="M6 3h12l4 6-10 13L2 9Z" />
      <path d="M11 3 8 9l4 13 4-13-3-6" />
      <path d="M2 9h20" />
    </g>
    <text x="44" y="25" font-family="Inter, -apple-system, sans-serif" font-weight="700" font-size="11" fill="#fb7185">Purpur</text>
    <text x="44" y="40" font-family="Inter, -apple-system, sans-serif" font-weight="400" font-size="9" fill="#737373">Backend</text>
  </g>

  <!-- Spigot — cyan (#22d3ee) — Backend -->
  <g transform="translate(586, 16)">
    <rect x="0" y="0" width="108" height="56" rx="10" fill="rgba(34,211,238,0.05)" stroke="rgba(34,211,238,0.12)" stroke-width="0.75"/>
    <circle cx="24" cy="28" r="13" fill="rgba(34,211,238,0.1)"/>
    <g transform="translate(16, 20) scale(0.667)" stroke="#22d3ee" stroke-width="2" fill="none" stroke-linecap="round" stroke-linejoin="round">
      <path d="M14.7 6.3a1 1 0 0 0 0 1.4l1.6 1.6a1 1 0 0 0 1.4 0l3.77-3.77a6 6 0 0 1-7.94 7.94l-6.91 6.91a2.12 2.12 0 0 1-3-3l6.91-6.91a6 6 0 0 1 7.94-7.94l-3.76 3.76z" />
    </g>
    <text x="44" y="25" font-family="Inter, -apple-system, sans-serif" font-weight="700" font-size="11" fill="#22d3ee">Spigot</text>
    <text x="44" y="40" font-family="Inter, -apple-system, sans-serif" font-weight="400" font-size="9" fill="#737373">Backend</text>
  </g>

  <!-- Bukkit — indigo (#a5b4fc) — Backend -->
  <g transform="translate(702, 16)">
    <rect x="0" y="0" width="108" height="56" rx="10" fill="rgba(165,180,252,0.05)" stroke="rgba(165,180,252,0.12)" stroke-width="0.75"/>
    <circle cx="24" cy="28" r="13" fill="rgba(165,180,252,0.1)"/>
    <g transform="translate(16, 20) scale(0.667)" stroke="#a5b4fc" stroke-width="2" fill="none" stroke-linecap="round" stroke-linejoin="round">
      <path d="M11 21.73a2 2 0 0 0 2 0l7-4A2 2 0 0 0 21 16V8a2 2 0 0 0-1-1.73l-7-4a2 2 0 0 0-2 0l-7 4A2 2 0 0 0 3 8v8a2 2 0 0 0 1 1.73z" />
      <path d="M12 22V12" />
      <polyline points="3.29 7 12 12 20.71 7" />
      <path d="m7.5 4.27 9 5.15" />
    </g>
    <text x="44" y="25" font-family="Inter, -apple-system, sans-serif" font-weight="700" font-size="11" fill="#a5b4fc">Bukkit</text>
    <text x="44" y="40" font-family="Inter, -apple-system, sans-serif" font-weight="400" font-size="9" fill="#737373">Backend</text>
  </g>
</svg>
