<svg xmlns="http://www.w3.org/2000/svg" viewBox="0 0 1200 630" width="1200" height="630">
  <defs>
    <style>@import url('https://fonts.googleapis.com/css2?family=Inter:wght@400;500;600;700;800&amp;display=swap');</style>

    <!-- Background gradient -->
    <linearGradient id="bg" x1="0" y1="0" x2="1200" y2="630" gradientUnits="userSpaceOnUse">
      <stop offset="0%" stop-color="#1a2744"/>
      <stop offset="100%" stop-color="#070e1f"/>
    </linearGradient>

    <!-- Ambient glows -->
    <radialGradient id="glow-left" cx="22%" cy="45%" r="35%">
      <stop offset="0%" stop-color="#4736D3" stop-opacity="0.14"/>
      <stop offset="100%" stop-color="#4736D3" stop-opacity="0"/>
    </radialGradient>
    <radialGradient id="glow-right" cx="78%" cy="50%" r="28%">
      <stop offset="0%" stop-color="#8268F0" stop-opacity="0.06"/>
      <stop offset="100%" stop-color="#8268F0" stop-opacity="0"/>
    </radialGradient>

    <!-- Accent gradient -->
    <linearGradient id="accent" x1="0" y1="0" x2="1" y2="0">
      <stop offset="0%" stop-color="#4736D3"/>
      <stop offset="100%" stop-color="#8268F0"/>
    </linearGradient>

    <!-- Logo gradients -->
    <linearGradient id="logo-fill">
      <stop offset="0" stop-color="rgb(39, 58, 102)"/>
      <stop offset="1" stop-color="rgb(8, 17, 35)"/>
    </linearGradient>
    <linearGradient id="logo-fill-rotated" href="#logo-fill" gradientUnits="userSpaceOnUse" x1="249.386" y1="-0.602" x2="249.386" y2="500.471" gradientTransform="matrix(0.699766, -0.711372, 1.00003, 0.983714, -175.220732, 180.486511)"/>

    <!-- Logo inner shadow -->
    <filter id="logo-inner-shadow" color-interpolation-filters="sRGB" x="-50%" y="-50%" width="200%" height="200%">
      <feOffset dx="0" dy="0"/><feGaussianBlur stdDeviation="8"/><feComposite operator="out" in="SourceGraphic"/><feComponentTransfer result="choke"><feFuncA type="linear" slope="0.62"/></feComponentTransfer><feFlood flood-color="#38509cb3" result="color"/><feComposite operator="in" in="color" in2="choke" result="shadow"/><feComposite operator="over" in="shadow" in2="SourceGraphic"/>
    </filter>

    <!-- Dot pattern -->
    <pattern id="dots" x="0" y="0" width="30" height="30" patternUnits="userSpaceOnUse">
      <circle cx="15" cy="15" r="0.6" fill="#ffffff" opacity="0.04"/>
    </pattern>

    <!-- Code window shadow -->
    <filter id="window-shadow" x="-10%" y="-5%" width="130%" height="120%">
      <feDropShadow dx="-4" dy="8" stdDeviation="20" flood-color="#000" flood-opacity="0.5"/>
    </filter>

    <!-- Code fade at bottom -->
    <linearGradient id="code-fade" x1="0" y1="0" x2="0" y2="1">
      <stop offset="0%" stop-color="#0c1222" stop-opacity="0"/>
      <stop offset="100%" stop-color="#0c1222" stop-opacity="0.95"/>
    </linearGradient>
  </defs>

  <!-- Background -->
  <rect width="1200" height="630" fill="url(#bg)"/>
  <rect width="1200" height="630" fill="url(#dots)"/>
  <rect width="1200" height="630" fill="url(#glow-left)"/>
  <rect width="1200" height="630" fill="url(#glow-right)"/>

  <!-- Top accent line -->
  <rect x="0" y="0" width="1200" height="3" fill="url(#accent)" opacity="0.5"/>

  <!-- ========== LEFT SIDE ========== -->

  <!-- Accent label -->
  <text x="72" y="150" font-family="Inter, -apple-system, sans-serif" font-weight="600" font-size="11.5" fill="#8268F0" letter-spacing="2.5">OPEN SOURCE MINECRAFT PLUGIN</text>

  <!-- Logo icon (80x80, full real logo: rect + bolt + both arrow curves) -->
  <g transform="translate(72, 172) scale(0.16)">
    <!-- Rounded rect background -->
    <rect x="0.626" y="1.779" width="499.341" height="500" style="fill: url(#logo-fill-rotated); filter: url(#logo-inner-shadow); stroke: rgb(16, 23, 45); stroke-miterlimit: 2.55; stroke-width: 1.996px;" rx="92.425" ry="92.425"/>
    <!-- Lightning bolt -->
    <path d="M 230.951 356.62 L 335.726 229.892 C 340.716 221.909 335.726 214.924 325.748 214.924 L 275.855 214.924 C 265.876 214.924 264.261 211.99 265.876 201.952 L 273.859 142.08 C 275.855 132.101 269.086 126.654 260.887 137.091 L 161.101 257.832 C 156.112 265.815 161.101 270.804 171.08 270.804 L 220.973 270.804 C 230.951 270.804 233.945 273.797 230.951 283.776 L 215.983 352.628 C 213.988 362.607 218.977 366.598 225.962 361.609 L 230.951 356.62 Z" style="fill: rgb(71, 54, 211); filter: drop-shadow(rgba(0, 0, 0, 0.3) 10px 10px 7px); stroke-opacity: 0.58; stroke: rgb(130, 104, 240); stroke-width: 0.998px;"/>
    <!-- Arrow curve 1 (bottom-right) -->
    <path d="M 177.988 370.937 C 179.821 371.935 183.489 373.93 186.834 375.538 C 190.18 377.147 193.204 378.369 196.324 379.623 C 199.445 380.878 202.661 382.165 206.361 383.355 C 210.06 384.545 214.242 385.639 218.231 386.443 C 222.22 387.248 226.016 387.762 229.748 388.213 C 233.479 388.663 237.147 389.049 241.296 389.178 C 245.446 389.307 250.078 389.178 254.904 388.888 C 259.729 388.599 264.747 388.148 269.026 387.569 C 273.304 386.99 276.843 386.282 280.799 385.285 C 284.756 384.288 289.131 383.001 293.763 381.522 C 298.396 380.042 303.286 378.369 307.886 376.374 C 312.486 374.38 316.797 372.064 320.915 369.683 C 325.032 367.303 328.957 364.858 333.203 361.673 C 337.449 358.489 342.017 354.564 345.877 350.99 C 349.738 347.415 352.89 344.191 356.268 340.327 C 359.646 336.464 363.249 331.96 366.369 327.488 C 369.489 323.017 372.127 318.577 374.25 314.653 C 376.373 310.728 377.982 307.318 379.397 304.023 C 380.813 300.728 382.035 297.546 383.129 294.219 C 384.223 290.891 385.188 287.417 386.217 283.556 C 387.247 279.696 388.341 275.45 389.145 271.364 C 389.949 267.278 390.463 263.354 390.753 259.654 C 391.042 255.955 391.107 252.481 391.171 248.91 C 391.236 245.339 391.3 241.672 391.171 238.198 C 391.042 234.724 390.721 231.443 390.399 228.476 C 390.077 225.509 389.756 222.857 389.627 220.084 C 389.498 217.31 389.563 214.415 390.109 211.777 C 390.656 209.139 391.686 206.759 392.844 204.829 C 394.002 202.899 395.289 201.419 396.865 199.971 C 398.442 198.523 400.307 197.108 402.43 195.885 C 404.553 194.663 406.934 193.633 409.025 193.086 C 411.116 192.539 412.917 192.475 414.526 192.572 C 416.134 192.669 417.55 192.926 419.126 193.505 C 420.702 194.084 422.439 194.985 424.209 196.014 C 425.978 197.043 427.78 198.201 429.227 199.456 C 430.675 200.71 431.768 202.061 432.701 203.284 C 433.634 204.506 434.406 205.6 435.146 207.145 C 435.886 208.689 436.594 210.683 437.205 212.452 C 437.816 214.222 438.331 215.766 438.685 217.406 C 439.039 219.047 439.232 220.784 439.489 222.972 C 439.747 225.159 440.068 227.797 440.261 230.885 C 440.454 233.973 440.518 237.512 440.55 241.158 C 440.582 244.804 440.582 248.557 440.486 251.945 C 440.39 255.333 440.197 258.357 439.907 261.864 C 439.618 265.37 439.232 269.359 438.653 273.927 C 438.074 278.495 437.301 283.642 436.079 289.497 C 434.856 295.352 433.184 301.914 431.447 307.64 C 429.709 313.366 427.908 318.256 425.779 322.979 C 423.651 327.702 421.195 332.259 418.51 337.151 C 415.825 342.043 412.91 347.269 409.241 352.923 C 405.573 358.576 401.151 364.657 396.804 370.003 C 392.457 375.349 388.186 379.962 383.864 384.202 C 379.542 388.443 375.169 392.313 370.998 395.73 C 366.827 399.148 362.858 402.113 357.053 406.058 C 351.249 410.002 343.611 414.927 334.766 419.475 C 325.921 424.023 315.87 428.194 305.292 431.486 C 294.714 434.777 283.608 437.189 273.005 438.622 C 262.401 440.054 252.3 440.506 243.707 440.381 C 235.113 440.255 228.028 439.551 220.364 438.244 C 212.7 436.938 204.458 435.028 197.172 432.968 C 189.885 430.908 183.553 428.697 177.322 425.983 C 171.091 423.269 164.96 420.053 160.06 417.339 C 155.161 414.626 151.492 412.415 148.703 410.706 C 145.914 408.998 144.004 407.792 142.622 407.038 C 141.24 406.284 140.386 405.982 139.531 405.932 C 138.677 405.881 137.823 406.082 136.944 406.509 C 136.064 406.936 135.16 407.59 132.823 409.901 C 130.486 412.213 126.717 416.183 124.434 418.228 C 122.15 420.273 121.352 420.393 120.352 420.453 C 119.352 420.513 118.149 420.513 116.97 420.212 C 115.79 419.912 114.634 419.31 113.593 418.547 C 112.552 417.784 111.627 416.859 110.749 415.125 C 109.87 413.391 109.037 410.847 107.233 404.633 C 105.43 398.42 102.655 388.538 99.688 378.062 C 96.722 367.586 93.564 356.518 91.873 350.113 C 90.182 343.708 89.958 341.968 90.183 340.396 C 90.407 338.824 91.081 337.421 92.209 336.316 C 93.338 335.211 94.92 334.406 96.52 333.872 C 98.12 333.339 99.737 333.079 101.837 333.116 C 103.937 333.154 106.519 333.491 110.112 334.024 C 113.705 334.557 118.308 335.287 124.399 336.242 C 130.49 337.196 138.069 338.375 145.058 339.498 C 152.047 340.621 158.447 341.687 163.416 342.445 C 168.384 343.203 171.921 343.652 174.307 344.101 C 176.692 344.551 177.927 345 179.05 345.757 C 180.173 346.515 181.183 347.582 181.632 348.817 C 182.082 350.052 181.969 351.455 181.52 352.943 C 181.071 354.431 180.285 356.003 179.274 357.518 C 178.264 359.034 177.029 360.494 176.046 361.672 C 175.064 362.851 174.334 363.749 174.082 364.704 C 173.829 365.658 174.053 366.668 174.478 367.551 C 174.903 368.433 175.529 369.186 175.841 369.563 C 176.154 369.94 176.154 369.94 176.154 369.94 C 176.154 369.94 176.154 369.94 177.988 370.937" style="fill: rgb(59, 42, 193); stroke: rgb(130, 104, 240); stroke-opacity: 0.52; stroke-width: 0.998px;"/>
    <!-- Arrow curve 2 (top-left, mirrored) -->
    <path d="M 149.05 230.239 C 150.883 231.237 154.551 233.231 157.897 234.84 C 161.242 236.449 164.266 237.671 167.386 238.925 C 170.507 240.18 173.723 241.466 177.423 242.657 C 181.122 243.847 185.304 244.941 189.293 245.745 C 193.282 246.55 197.078 247.064 200.81 247.514 C 204.541 247.965 208.209 248.351 212.359 248.48 C 216.508 248.608 221.14 248.48 225.966 248.19 C 230.791 247.901 235.81 247.45 240.088 246.871 C 244.367 246.292 247.905 245.584 251.862 244.587 C 255.818 243.59 260.193 242.303 264.826 240.824 C 269.458 239.344 274.348 237.671 278.948 235.676 C 283.548 233.682 287.859 231.365 291.977 228.985 C 296.094 226.605 300.019 224.16 304.265 220.975 C 308.512 217.791 313.079 213.866 316.94 210.292 C 320.8 206.717 323.952 203.493 327.33 199.629 C 330.708 195.766 334.311 191.262 337.431 186.79 C 340.551 182.319 343.189 177.879 345.312 173.955 C 347.435 170.03 349.044 166.62 350.459 163.325 C 351.875 160.03 353.097 156.848 354.191 153.521 C 355.285 150.193 356.25 146.719 357.28 142.858 C 358.309 138.998 359.403 134.751 360.207 130.666 C 361.011 126.58 361.525 122.656 361.815 118.956 C 362.105 115.257 362.169 111.783 362.233 108.212 C 362.298 104.641 362.362 100.974 362.233 97.5 C 362.105 94.026 361.783 90.745 361.461 87.778 C 361.14 84.811 360.818 82.159 360.689 79.386 C 360.56 76.612 360.625 73.716 361.172 71.079 C 361.718 68.441 362.748 66.061 363.906 64.131 C 365.064 62.2 366.351 60.721 367.927 59.273 C 369.504 57.825 371.369 56.41 373.492 55.187 C 375.616 53.965 377.996 52.935 380.087 52.388 C 382.178 51.841 383.98 51.777 385.588 51.874 C 387.196 51.97 388.612 52.228 390.188 52.807 C 391.764 53.386 393.501 54.287 395.271 55.316 C 397.04 56.345 398.842 57.503 400.289 58.758 C 401.737 60.012 402.83 61.363 403.763 62.586 C 404.696 63.808 405.468 64.902 406.208 66.447 C 406.948 67.991 407.656 69.985 408.267 71.754 C 408.878 73.524 409.393 75.068 409.747 76.708 C 410.101 78.349 410.294 80.086 410.551 82.274 C 410.809 84.461 411.13 87.099 411.323 90.187 C 411.516 93.275 411.58 96.814 411.612 100.46 C 411.645 104.106 411.645 107.859 411.548 111.247 C 411.452 114.635 411.259 117.659 410.969 121.166 C 410.68 124.672 410.294 128.661 409.715 133.229 C 409.136 137.797 408.364 142.944 407.141 148.799 C 405.919 154.654 404.246 161.216 402.509 166.942 C 400.772 172.668 398.97 177.558 396.841 182.281 C 394.713 187.004 392.257 191.561 389.572 196.453 C 386.887 201.345 383.972 206.571 380.303 212.225 C 376.635 217.878 372.213 223.959 367.866 229.305 C 363.519 234.651 359.248 239.264 354.926 243.504 C 350.604 247.745 346.232 251.615 342.061 255.032 C 337.889 258.45 333.92 261.415 328.115 265.36 C 322.311 269.304 314.673 274.229 305.828 278.777 C 296.983 283.325 286.932 287.496 276.354 290.788 C 265.776 294.079 254.67 296.491 244.067 297.924 C 233.463 299.356 223.362 299.808 214.769 299.683 C 206.175 299.557 199.09 298.853 191.426 297.546 C 183.762 296.24 175.521 294.33 168.234 292.27 C 160.947 290.21 154.615 287.999 148.384 285.285 C 142.153 282.571 136.022 279.355 131.122 276.641 C 126.223 273.927 122.554 271.717 119.765 270.008 C 116.976 268.3 115.066 267.093 113.684 266.34 C 112.302 265.586 111.448 265.284 110.594 265.234 C 109.739 265.183 108.885 265.384 108.006 265.811 C 107.126 266.238 106.222 266.892 103.885 269.203 C 101.548 271.515 97.779 275.485 95.496 277.53 C 93.212 279.575 92.414 279.695 91.414 279.755 C 90.414 279.814 89.211 279.814 88.032 279.514 C 86.853 279.213 85.696 278.612 84.655 277.849 C 83.614 277.086 82.689 276.161 81.811 274.427 C 80.932 272.692 80.099 270.149 78.296 263.935 C 76.492 257.722 73.717 247.84 70.75 237.364 C 67.784 226.888 64.627 215.819 62.936 209.415 C 61.244 203.01 61.02 201.27 61.245 199.698 C 61.469 198.126 62.143 196.722 63.276 195.644 C 64.408 194.565 66 193.812 67.6 193.279 C 69.199 192.746 70.808 192.433 72.903 192.444 C 74.999 192.456 77.581 192.793 81.174 193.326 C 84.767 193.859 89.37 194.589 95.461 195.544 C 101.552 196.498 109.131 197.677 116.12 198.8 C 123.109 199.923 129.509 200.989 134.478 201.747 C 139.446 202.505 142.983 202.954 145.369 203.403 C 147.755 203.853 148.99 204.302 150.112 205.059 C 151.235 205.817 152.246 206.884 152.695 208.119 C 153.144 209.354 153.031 210.757 152.582 212.245 C 152.133 213.733 151.347 215.305 150.336 216.82 C 149.326 218.336 148.091 219.796 147.108 220.974 C 146.126 222.153 145.396 223.051 145.144 224.006 C 144.891 224.96 145.116 225.97 145.54 226.852 C 145.965 227.735 146.591 228.488 146.903 228.865 C 147.216 229.242 147.216 229.242 147.216 229.242 C 147.216 229.242 147.216 229.242 149.05 230.239" style="fill: rgb(76, 55, 216); stroke: rgb(130, 104, 240); stroke-opacity: 0.68; stroke-width: 0.998px;" transform="matrix(-1, 0, 0, -1, 472.804, 351.54)"/>
  </g>

  <!-- Title next to logo -->
  <text x="160" y="223" font-family="Inter, -apple-system, BlinkMacSystemFont, 'Segoe UI', sans-serif"
        font-weight="800" font-size="36" fill="#f8fafc" letter-spacing="-1">CommandBridge</text>

  <!-- Description (pushed down for better spacing) -->
  <text font-family="Inter, -apple-system, BlinkMacSystemFont, 'Segoe UI', sans-serif"
        font-weight="400" font-size="15" fill="#94a3b8">
    <tspan x="72" y="278">Bridge commands between your Velocity</tspan>
    <tspan x="72" y="299">proxy and backend servers. Define once</tspan>
    <tspan x="72" y="320">in YAML, execute anywhere on your network.</tspan>

  </text>

  <!-- Badges row -->
  <!-- Modrinth badge (border style matching others) -->
  <g transform="translate(72, 365)">
    <rect width="110" height="36" rx="8" fill="rgba(27,217,106,0.1)" stroke="rgba(27,217,106,0.3)" stroke-width="1"/>
    <g transform="translate(11, 8)">
      <svg width="20" height="20" viewBox="0 0 512 514" fill="none">
        <path fill-rule="evenodd" clip-rule="evenodd" d="M503.16 323.56C514.55 281.47 515.32 235.91 503.2 190.76C466.57 54.2299 326.04 -26.8001 189.33 9.77991C83.8101 38.0199 11.3899 128.07 0.689941 230.47H43.99C54.29 147.33 113.74 74.7298 199.75 51.7098C306.05 23.2598 415.13 80.6699 453.17 181.38L411.03 192.65C391.64 145.8 352.57 111.45 306.3 96.8198L298.56 140.66C335.09 154.13 364.72 184.5 375.56 224.91C391.36 283.8 361.94 344.14 308.56 369.17L320.09 412.16C390.25 383.21 432.4 310.3 422.43 235.14L464.41 223.91C468.91 252.62 467.35 281.16 460.55 308.07L503.16 323.56Z" fill="#1bd96a"/>
        <path d="M321.99 504.22C185.27 540.8 44.7501 459.77 8.11011 323.24C3.84011 307.31 1.17 291.33 0 275.46H43.27C44.36 287.37 46.4699 299.35 49.6799 311.29C53.0399 323.8 57.45 335.75 62.79 347.07L101.38 323.92C98.1299 316.42 95.39 308.6 93.21 300.47C69.17 210.87 122.41 118.77 212.13 94.7601C229.13 90.2101 246.23 88.4401 262.93 89.1501L255.19 133C244.73 133.05 234.11 134.42 223.53 137.25C157.31 154.98 118.01 222.95 135.75 289.09C136.85 293.16 138.13 297.13 139.59 300.99L188.94 271.38L174.07 231.95L220.67 184.08L279.57 171.39L296.62 192.38L269.47 219.88L245.79 227.33L228.87 244.72L237.16 267.79C237.16 267.79 253.95 285.63 253.98 285.64L277.7 279.33L294.58 260.79L331.44 249.12L342.42 273.82L304.39 320.45L240.66 340.63L212.08 308.81L162.26 338.7C187.8 367.78 226.2 383.93 266.01 380.56L277.54 423.55C218.13 431.41 160.1 406.82 124.05 361.64L85.6399 384.68C136.25 451.17 223.84 484.11 309.61 461.16C371.35 444.64 419.4 402.56 445.42 349.38L488.06 364.88C457.17 431.16 398.22 483.82 321.99 504.22Z" fill="#1bd96a"/>
      </svg>
    </g>
    <text x="40" y="23" font-family="Inter, -apple-system, sans-serif" font-weight="700" font-size="13" fill="#1bd96a">Modrinth</text>
  </g>

  <!-- GitHub badge -->
  <g transform="translate(192, 365)">
    <rect width="94" height="36" rx="8" fill="rgba(255,255,255,0.06)" stroke="rgba(255,255,255,0.15)" stroke-width="1"/>
    <g transform="translate(14, 10)">
      <path d="M8 0C3.58 0 0 3.58 0 8c0 3.54 2.29 6.53 5.47 7.59.4.07.55-.17.55-.38 0-.19-.01-.82-.01-1.49-2.01.37-2.53-.49-2.69-.94-.09-.23-.48-.94-.82-1.13-.28-.15-.68-.52-.01-.53.63-.01 1.08.58 1.23.82.72 1.21 1.87.87 2.33.66.07-.52.28-.87.51-1.07-1.78-.2-3.64-.89-3.64-3.95 0-.87.31-1.59.82-2.15-.08-.2-.36-1.02.08-2.12 0 0 .67-.21 2.2.82.64-.18 1.32-.27 2-.27.68 0 1.36.09 2 .27 1.53-1.04 2.2-.82 2.2-.82.44 1.1.16 1.92.08 2.12.51.56.82 1.27.82 2.15 0 3.07-1.87 3.75-3.65 3.95.29.25.54.73.54 1.48 0 1.07-.01 1.93-.01 2.2 0 .21.15.46.55.38A8.013 8.013 0 0016 8c0-4.42-3.58-8-8-8z" fill="#e6edf3"/>
    </g>
    <text x="38" y="23" font-family="Inter, -apple-system, sans-serif" font-weight="600" font-size="13" fill="#e6edf3">GitHub</text>
  </g>

  <!-- Website badge (cb.objz.dev) with globe icon -->
  <g transform="translate(296, 365)">
    <rect width="120" height="36" rx="8" fill="rgba(71,54,211,0.15)" stroke="rgba(130,104,240,0.3)" stroke-width="1"/>
    <!-- Globe icon -->
    <g transform="translate(12, 10)" stroke="#a78bfa" stroke-width="1.5" fill="none" stroke-linecap="round" stroke-linejoin="round">
      <circle cx="8" cy="8" r="7"/>
      <line x1="1" y1="8" x2="15" y2="8"/>
      <ellipse cx="8" cy="8" rx="3.5" ry="7"/>
    </g>
    <text x="36" y="23" font-family="Inter, -apple-system, sans-serif" font-weight="600" font-size="12.5" fill="#a78bfa">cb.objz.dev</text>
  </g>

  <!-- Platform list -->
  <g transform="translate(72, 432)">
    <text font-family="Inter, -apple-system, sans-serif" font-weight="500" font-size="12" fill="#64748b" word-spacing="3.2">
      <tspan>Velocity</tspan><tspan fill="#4a5568"> · </tspan>
      <tspan>Paper</tspan><tspan fill="#4a5568"> · </tspan>
      <tspan>Folia</tspan><tspan fill="#4a5568"> · </tspan>
      <tspan>Purpur</tspan><tspan fill="#4a5568"> · </tspan>
      <tspan>Spigot</tspan><tspan fill="#4a5568"> · </tspan>
      <tspan>Bukkit</tspan>
    </text>
  </g>

  <!-- ========== RIGHT SIDE — Code Editor Mockup ========== -->
  <g filter="url(#window-shadow)" transform="translate(545, 40)">
    <!-- Editor frame -->
    <rect x="0" y="0" width="670" height="555" rx="12" fill="#0c1222" stroke="rgba(255,255,255,0.1)" stroke-width="1"/>

    <!-- Title bar -->
    <rect x="0" y="0" width="670" height="36" rx="12" fill="rgba(255,255,255,0.04)"/>

    <!-- Window dots -->
    <circle cx="18" cy="18" r="5.5" fill="#ff5f57"/>
    <circle cx="37" cy="18" r="5.5" fill="#ffbd2e"/>
    <circle cx="56" cy="18" r="5.5" fill="#28c840"/>

    <!-- Filename tab -->
    <text x="335" y="23" text-anchor="middle" font-family="Inter, -apple-system, sans-serif" font-weight="500" font-size="11" fill="#737373">alert.yml</text>

    <!-- Gutter background -->
    <rect x="0" y="36" width="42" height="519" fill="rgba(255,255,255,0.02)"/>

    <!-- Line numbers -->
    <g font-family="ui-monospace, 'SF Mono', 'Cascadia Code', monospace" font-size="11" fill="#4a5568" text-anchor="end">
      <text x="34" y="60"> 1</text>
      <text x="34" y="81"> 2</text>
      <text x="34" y="102"> 3</text>
      <text x="34" y="123"> 4</text>
      <text x="34" y="144"> 5</text>
      <text x="34" y="165"> 6</text>
      <text x="34" y="186"> 7</text>
      <text x="34" y="207"> 8</text>
      <text x="34" y="228"> 9</text>
      <text x="34" y="249">10</text>
      <text x="34" y="270">11</text>
      <text x="34" y="291">12</text>
      <text x="34" y="312">13</text>
      <text x="34" y="333">14</text>
      <text x="34" y="354">15</text>
      <text x="34" y="375">16</text>
      <text x="34" y="396">17</text>
      <text x="34" y="417">18</text>
      <text x="34" y="438">19</text>
      <text x="34" y="459">20</text>
      <text x="34" y="480">21</text>
      <text x="34" y="501">22</text>
      <text x="34" y="522">23</text>
    </g>

    <!-- YAML Code — Alert Broadcast script (no minigames, 23 lines) -->
    <!-- x-position indentation: level0=52, level1=67, level2=82, level3=97 (15px per indent) -->
    <!-- Colors: keys=#8eaadc strings=#86efac constants=#c084fc numbers=#5eead4 punctuation=#a3a3a3 -->
    <!-- Font-size 12.5, line-height 21px, first line y=60 -->

    <!-- L1: version: 3 -->
    <text x="52" y="60" font-family="ui-monospace, 'SF Mono', 'Cascadia Code', monospace" font-size="12.5"><tspan fill="#8eaadc">version</tspan><tspan fill="#a3a3a3">: </tspan><tspan fill="#5eead4">3</tspan></text>
    <!-- L2: name: alert -->
    <text x="52" y="81" font-family="ui-monospace, 'SF Mono', 'Cascadia Code', monospace" font-size="12.5"><tspan fill="#8eaadc">name</tspan><tspan fill="#a3a3a3">: </tspan><tspan fill="#86efac">alert</tspan></text>
    <!-- L3: description: Broadcast an alert to all servers -->
    <text x="52" y="102" font-family="ui-monospace, 'SF Mono', 'Cascadia Code', monospace" font-size="12.5"><tspan fill="#8eaadc">description</tspan><tspan fill="#a3a3a3">: </tspan><tspan fill="#86efac">Broadcast an alert to all servers</tspan></text>
    <!-- L4: enabled: true -->
    <text x="52" y="123" font-family="ui-monospace, 'SF Mono', 'Cascadia Code', monospace" font-size="12.5"><tspan fill="#8eaadc">enabled</tspan><tspan fill="#a3a3a3">: </tspan><tspan fill="#c084fc">true</tspan></text>
    <!-- L5: (blank) -->
    <!-- L6: register: -->
    <text x="52" y="165" font-family="ui-monospace, 'SF Mono', 'Cascadia Code', monospace" font-size="12.5"><tspan fill="#8eaadc">register</tspan><tspan fill="#a3a3a3">:</tspan></text>
    <!-- L7:   - id: "proxy-1" -->
    <text x="67" y="186" font-family="ui-monospace, 'SF Mono', 'Cascadia Code', monospace" font-size="12.5"><tspan fill="#a3a3a3">- </tspan><tspan fill="#8eaadc">id</tspan><tspan fill="#a3a3a3">: </tspan><tspan fill="#86efac">"proxy-1"</tspan></text>
    <!-- L8:     location: VELOCITY -->
    <text x="82" y="207" font-family="ui-monospace, 'SF Mono', 'Cascadia Code', monospace" font-size="12.5"><tspan fill="#8eaadc">location</tspan><tspan fill="#a3a3a3">: </tspan><tspan fill="#c084fc">VELOCITY</tspan></text>
    <!-- L9: (blank) -->
    <!-- L10: defaults: -->
    <text x="52" y="249" font-family="ui-monospace, 'SF Mono', 'Cascadia Code', monospace" font-size="12.5"><tspan fill="#8eaadc">defaults</tspan><tspan fill="#a3a3a3">:</tspan></text>
    <!-- L11:   run-as: CONSOLE -->
    <text x="67" y="270" font-family="ui-monospace, 'SF Mono', 'Cascadia Code', monospace" font-size="12.5"><tspan fill="#8eaadc">run-as</tspan><tspan fill="#a3a3a3">: </tspan><tspan fill="#c084fc">CONSOLE</tspan></text>
    <!-- L12:   execute: -->
    <text x="67" y="291" font-family="ui-monospace, 'SF Mono', 'Cascadia Code', monospace" font-size="12.5"><tspan fill="#8eaadc">execute</tspan><tspan fill="#a3a3a3">:</tspan></text>
    <!-- L13:     - id: "lobby" -->
    <text x="82" y="312" font-family="ui-monospace, 'SF Mono', 'Cascadia Code', monospace" font-size="12.5"><tspan fill="#a3a3a3">- </tspan><tspan fill="#8eaadc">id</tspan><tspan fill="#a3a3a3">: </tspan><tspan fill="#86efac">"lobby"</tspan></text>
    <!-- L14:       location: BACKEND -->
    <text x="97" y="333" font-family="ui-monospace, 'SF Mono', 'Cascadia Code', monospace" font-size="12.5"><tspan fill="#8eaadc">location</tspan><tspan fill="#a3a3a3">: </tspan><tspan fill="#c084fc">BACKEND</tspan></text>
    <!-- L15:     - id: "survival" -->
    <text x="82" y="354" font-family="ui-monospace, 'SF Mono', 'Cascadia Code', monospace" font-size="12.5"><tspan fill="#a3a3a3">- </tspan><tspan fill="#8eaadc">id</tspan><tspan fill="#a3a3a3">: </tspan><tspan fill="#86efac">"survival"</tspan></text>
    <!-- L16:       location: BACKEND -->
    <text x="97" y="375" font-family="ui-monospace, 'SF Mono', 'Cascadia Code', monospace" font-size="12.5"><tspan fill="#8eaadc">location</tspan><tspan fill="#a3a3a3">: </tspan><tspan fill="#c084fc">BACKEND</tspan></text>
    <!-- L17: (blank) -->
    <!-- L18: args: -->
    <text x="52" y="417" font-family="ui-monospace, 'SF Mono', 'Cascadia Code', monospace" font-size="12.5"><tspan fill="#8eaadc">args</tspan><tspan fill="#a3a3a3">:</tspan></text>
    <!-- L19:   - name: message -->
    <text x="67" y="438" font-family="ui-monospace, 'SF Mono', 'Cascadia Code', monospace" font-size="12.5"><tspan fill="#a3a3a3">- </tspan><tspan fill="#8eaadc">name</tspan><tspan fill="#a3a3a3">: </tspan><tspan fill="#86efac">message</tspan></text>
    <!-- L20:     type: GREEDY_STRING -->
    <text x="82" y="459" font-family="ui-monospace, 'SF Mono', 'Cascadia Code', monospace" font-size="12.5"><tspan fill="#8eaadc">type</tspan><tspan fill="#a3a3a3">: </tspan><tspan fill="#c084fc">GREEDY_STRING</tspan></text>
    <!-- L21: (blank) -->
    <!-- L22: commands: -->
    <text x="52" y="501" font-family="ui-monospace, 'SF Mono', 'Cascadia Code', monospace" font-size="12.5"><tspan fill="#8eaadc">commands</tspan><tspan fill="#a3a3a3">:</tspan></text>
    <!-- L23:   - command: "say [Alert]: ${message}" -->
    <text x="67" y="522" font-family="ui-monospace, 'SF Mono', 'Cascadia Code', monospace" font-size="12.5"><tspan fill="#a3a3a3">- </tspan><tspan fill="#8eaadc">command</tspan><tspan fill="#a3a3a3">: </tspan><tspan fill="#86efac">"say [Alert]: ${message}"</tspan></text>

    <!-- Bottom fade -->
    <rect x="1" y="520" width="668" height="34" fill="url(#code-fade)"/>
  </g>

  <!-- Bottom accent bar -->
  <rect x="0" y="625" width="1200" height="5" fill="url(#accent)" opacity="0.6"/>
</svg>
